<svg xmlns="http://www.w3.org/2000/svg" version="1.1" xmlns:xlink="http://www.w3.org/1999/xlink" viewBox="0 0 200 200"><rect width="200" height="200" fill="url('#gradient')"></rect><defs><linearGradient id="gradient" gradientTransform="rotate(45 0.5 0.5)"><stop offset="0%" stop-color="#afbef3"></stop><stop offset="100%" stop-color="#1e067d"></stop></linearGradient></defs><g><g fill="#f1f4fb" transform="matrix(8.844529750479847,0,0,8.844529750479847,9.035814380891722,146.70231811281815)" stroke="#f6f0ee" stroke-width="0.2"><path d="M3.72-10.57L5.21-7.66L6.74-10.57L10.16-10.57L7.37-5.42L10.29 0L6.86 0L5.20-3.13L3.56 0L0.11 0L3.04-5.42L0.26-10.57L3.72-10.57ZM20.46 0L17.17 0Q16.99-0.32 16.86-0.95L16.86-0.95Q15.95 0.20 14.32 0.20L14.32 0.20Q12.82 0.20 11.78-0.71Q10.73-1.61 10.73-2.98L10.73-2.98Q10.73-4.70 12.00-5.58Q13.27-6.46 15.69-6.46L15.69-6.46L16.71-6.46L16.71-7.01Q16.71-8.47 15.45-8.47L15.45-8.47Q14.28-8.47 14.28-7.31L14.28-7.31L10.99-7.31Q10.99-8.85 12.29-9.80Q13.59-10.76 15.62-10.76Q17.64-10.76 18.81-9.78Q19.98-8.79 20.01-7.07L20.01-7.07L20.01-2.39Q20.03-0.94 20.46-0.17L20.46-0.17L20.46 0ZM15.11-2.15L15.11-2.15Q15.72-2.15 16.13-2.41Q16.53-2.68 16.71-3.01L16.71-3.01L16.71-4.70L15.75-4.70Q14.03-4.70 14.03-3.15L14.03-3.15Q14.03-2.71 14.34-2.43Q14.64-2.15 15.11-2.15Z"></path></g></g></svg>